<svg width="14" height="14" viewBox="0 0 14 14" fill="none" xmlns="http://www.w3.org/2000/svg">
<path d="M5.02838 8.2H2.80225C2.67644 8.20005 2.55383 8.23965 2.45175 8.31319C2.34968 8.38672 2.2733 8.49049 2.23342 8.6098L1.03095 12.2098C1.0008 12.3 0.992524 12.396 1.0068 12.4901C1.02107 12.5841 1.05749 12.6733 1.11304 12.7505C1.1686 12.8277 1.2417 12.8906 1.32633 12.9339C1.41096 12.9773 1.50468 13 1.59978 13H12.4004C12.4954 12.9999 12.5891 12.9773 12.6737 12.9339C12.7582 12.8906 12.8313 12.8278 12.8868 12.7507C12.9424 12.6736 12.9788 12.5844 12.9931 12.4905C13.0075 12.3965 12.9993 12.3006 12.9693 12.2104L11.7692 8.6104C11.7294 8.49088 11.6529 8.38692 11.5507 8.31325C11.4485 8.23959 11.3257 8.19997 11.1997 8.2H8.97242M10.6003 4.6C10.6003 6.7678 8.27876 9.0574 7.3643 9.877C7.25969 9.9569 7.13171 10.0002 7.00008 10.0002C6.86845 10.0002 6.74047 9.9569 6.63586 9.877C5.722 9.0574 3.39987 6.7678 3.39987 4.6C3.39987 3.64522 3.77917 2.72955 4.45434 2.05442C5.12952 1.37928 6.04524 1 7.00008 1C7.95492 1 8.87064 1.37928 9.54581 2.05442C10.221 2.72955 10.6003 3.64522 10.6003 4.6ZM8.20008 4.6C8.20008 5.26274 7.66279 5.8 7.00001 5.8C6.33723 5.8 5.79994 5.26274 5.79994 4.6C5.79994 3.93725 6.33723 3.4 7.00001 3.4C7.66279 3.4 8.20008 3.93725 8.20008 4.6Z" stroke="#009C4F" stroke-linecap="round" stroke-linejoin="round"/>
</svg>
