<svg width="83" height="47" viewBox="0 0 53 17" fill="none" xmlns="http://www.w3.org/2000/svg">
<g clip-path="url(#clip0_39_1472)">
<path d="M12.75 5.66667C12.75 8.22588 10.0095 10.9289 8.92996 11.8965C8.80647 11.9908 8.65539 12.0419 8.5 12.0419C8.34461 12.0419 8.19353 11.9908 8.07004 11.8965C6.99125 10.9289 4.25 8.22588 4.25 5.66667C4.25 4.5395 4.69777 3.4585 5.4948 2.66147C6.29183 1.86444 7.37283 1.41667 8.5 1.41667C9.62717 1.41667 10.7082 1.86444 11.5052 2.66147C12.3022 3.4585 12.75 4.5395 12.75 5.66667Z" stroke="#009C4F" stroke-width="1.5" stroke-linecap="round" stroke-linejoin="round"/>
<path d="M8.49992 7.08333C9.28232 7.08333 9.91659 6.44907 9.91659 5.66667C9.91659 4.88426 9.28232 4.25 8.49992 4.25C7.71752 4.25 7.08325 4.88426 7.08325 5.66667C7.08325 6.44907 7.71752 7.08333 8.49992 7.08333Z" stroke="#009C4F" stroke-width="1.5" stroke-linecap="round" stroke-linejoin="round"/>
<path d="M6.17244 9.91666H3.54452C3.39601 9.91673 3.25127 9.96347 3.13077 10.0503C3.01027 10.1371 2.9201 10.2596 2.87302 10.4005L1.45352 14.6505C1.41794 14.7569 1.40817 14.8703 1.42502 14.9813C1.44187 15.0923 1.48486 15.1977 1.55044 15.2888C1.61602 15.3799 1.70232 15.4541 1.80222 15.5053C1.90212 15.5566 2.01276 15.5833 2.12502 15.5833H14.875C14.9872 15.5832 15.0978 15.5565 15.1976 15.5054C15.2974 15.4542 15.3837 15.38 15.4492 15.289C15.5148 15.198 15.5578 15.0927 15.5747 14.9818C15.5916 14.8709 15.582 14.7576 15.5465 14.6512L14.1299 10.4012C14.0829 10.2601 13.9926 10.1373 13.872 10.0504C13.7513 9.96341 13.6064 9.91663 13.4576 9.91666H10.8283" stroke="#009C4F" stroke-width="1.5" stroke-linecap="round" stroke-linejoin="round"/>
</g>
<path d="M21.26 3.2H25.068C25.8893 3.2 26.636 3.43333 27.308 3.9C27.9893 4.36667 28.512 4.97333 28.876 5.72C29.2493 6.46667 29.436 7.26 29.436 8.1C29.436 8.94 29.2493 9.73333 28.876 10.48C28.512 11.2267 27.9893 11.8333 27.308 12.3C26.636 12.7667 25.8893 13 25.068 13H21.26V3.2ZM23.192 11.18H25.04C25.74 11.18 26.3187 10.8627 26.776 10.228C27.2427 9.59333 27.476 8.884 27.476 8.1C27.476 7.316 27.2427 6.60667 26.776 5.972C26.3187 5.33733 25.74 5.02 25.04 5.02H23.192V11.18ZM33.0569 3.774C33.7569 3.27933 34.5175 3.032 35.3389 3.032C36.1602 3.032 36.9209 3.27933 37.6209 3.774C38.3209 4.25933 38.8669 4.894 39.2589 5.678C39.6509 6.45267 39.8469 7.26 39.8469 8.1C39.8469 8.94 39.6509 9.752 39.2589 10.536C38.8669 11.3107 38.3209 11.9453 37.6209 12.44C36.9209 12.9253 36.1602 13.168 35.3389 13.168C34.5175 13.168 33.7569 12.9253 33.0569 12.44C32.3569 11.9453 31.8109 11.3107 31.4189 10.536C31.0269 9.752 30.8309 8.94 30.8309 8.1C30.8309 7.26 31.0269 6.45267 31.4189 5.678C31.8109 4.894 32.3569 4.25933 33.0569 3.774ZM33.5049 10.326C34.0089 11.0073 34.6202 11.348 35.3389 11.348C36.0575 11.348 36.6642 11.0073 37.1589 10.326C37.6629 9.64467 37.9149 8.90267 37.9149 8.1C37.9149 7.29733 37.6629 6.55533 37.1589 5.874C36.6642 5.19267 36.0575 4.852 35.3389 4.852C34.6202 4.852 34.0089 5.19267 33.5049 5.874C33.0102 6.55533 32.7629 7.29733 32.7629 8.1C32.7629 8.90267 33.0102 9.64467 33.5049 10.326ZM46.9748 13H45.6028L43.7408 8.66V13H41.8088V3.2H43.4608L46.2888 9.794L49.1168 3.2H50.7688V13H48.8368V8.66L46.9748 13Z" fill="#009C4F"/>
<path d="M21.26 3.2V3.075H21.135V3.2H21.26ZM27.308 3.9L27.2367 4.00267L27.2374 4.00313L27.308 3.9ZM28.876 5.72L28.7636 5.77478L28.7642 5.7759L28.876 5.72ZM28.876 10.48L28.7642 10.4241L28.7636 10.4252L28.876 10.48ZM27.308 12.3L27.2374 12.1969L27.2367 12.1973L27.308 12.3ZM21.26 13H21.135V13.125H21.26V13ZM23.192 11.18H23.067V11.305H23.192V11.18ZM26.776 10.228L26.6753 10.1539L26.6746 10.1549L26.776 10.228ZM26.776 5.972L26.6746 6.04508L26.6753 6.04605L26.776 5.972ZM23.192 5.02V4.895H23.067V5.02H23.192ZM21.26 3.325H25.068V3.075H21.26V3.325ZM25.068 3.325C25.864 3.325 26.5857 3.5506 27.2367 4.00267L27.3793 3.79733C26.6863 3.31606 25.9147 3.075 25.068 3.075V3.325ZM27.2374 4.00313C27.9007 4.45749 28.4091 5.04745 28.7636 5.77477L28.9884 5.66522C28.6149 4.89922 28.0779 4.27585 27.3786 3.79687L27.2374 4.00313ZM28.7642 5.7759C29.1288 6.5051 29.311 7.27928 29.311 8.1H29.561C29.561 7.24072 29.3699 6.42823 28.9878 5.6641L28.7642 5.7759ZM29.311 8.1C29.311 8.92072 29.1288 9.6949 28.7642 10.4241L28.9878 10.5359C29.3699 9.77177 29.561 8.95928 29.561 8.1H29.311ZM28.7636 10.4252C28.4091 11.1526 27.9007 11.7425 27.2374 12.1969L27.3786 12.4031C28.0779 11.9242 28.6149 11.3008 28.9884 10.5348L28.7636 10.4252ZM27.2367 12.1973C26.5857 12.6494 25.864 12.875 25.068 12.875V13.125C25.9147 13.125 26.6863 12.8839 27.3793 12.4027L27.2367 12.1973ZM25.068 12.875H21.26V13.125H25.068V12.875ZM21.385 13V3.2H21.135V13H21.385ZM23.192 11.305H25.04V11.055H23.192V11.305ZM25.04 11.305C25.7854 11.305 26.3998 10.9639 26.8774 10.3011L26.6746 10.1549C26.2376 10.7614 25.6946 11.055 25.04 11.055V11.305ZM26.8767 10.302C27.3591 9.64603 27.601 8.91078 27.601 8.1H27.351C27.351 8.85722 27.1263 9.54064 26.6753 10.154L26.8767 10.302ZM27.601 8.1C27.601 7.28922 27.3591 6.55397 26.8767 5.89795L26.6753 6.04605C27.1263 6.65936 27.351 7.34278 27.351 8.1H27.601ZM26.8774 5.89892C26.3998 5.23609 25.7854 4.895 25.04 4.895V5.145C25.6946 5.145 26.2376 5.43858 26.6746 6.04508L26.8774 5.89892ZM25.04 4.895H23.192V5.145H25.04V4.895ZM23.067 5.02V11.18H23.317V5.02H23.067ZM33.0569 3.774L33.1281 3.87673L33.129 3.87608L33.0569 3.774ZM37.6209 3.774L37.5487 3.87609L37.5496 3.87672L37.6209 3.774ZM39.2589 5.678L39.1471 5.7339L39.1473 5.73444L39.2589 5.678ZM39.2589 10.536L39.3704 10.5924L39.3707 10.5919L39.2589 10.536ZM37.6209 12.44L37.6921 12.5427L37.693 12.5421L37.6209 12.44ZM33.0569 12.44L32.9847 12.5421L32.9856 12.5427L33.0569 12.44ZM31.4189 10.536L31.3071 10.5919L31.3073 10.5924L31.4189 10.536ZM31.4189 5.678L31.5304 5.73444L31.5307 5.7339L31.4189 5.678ZM33.5049 10.326L33.4037 10.3994L33.4044 10.4003L33.5049 10.326ZM37.1589 10.326L37.0584 10.2517L37.0577 10.2526L37.1589 10.326ZM37.1589 5.874L37.0577 5.94744L37.0584 5.94834L37.1589 5.874ZM33.5049 5.874L33.4044 5.79966L33.4037 5.80056L33.5049 5.874ZM33.129 3.87608C33.8089 3.39564 34.5445 3.157 35.3389 3.157V2.907C34.4905 2.907 33.7048 3.16303 32.9847 3.67192L33.129 3.87608ZM35.3389 3.157C36.1332 3.157 36.8688 3.39564 37.5487 3.87608L37.693 3.67192C36.9729 3.16303 36.1872 2.907 35.3389 2.907V3.157ZM37.5496 3.87672C38.2319 4.34975 38.7642 4.9681 39.1471 5.7339L39.3707 5.6221C38.9696 4.8199 38.4098 4.16892 37.6921 3.67127L37.5496 3.87672ZM39.1473 5.73444C39.5308 6.49222 39.7219 7.28028 39.7219 8.1H39.9719C39.9719 7.23972 39.7709 6.41312 39.3704 5.62156L39.1473 5.73444ZM39.7219 8.1C39.7219 8.91974 39.5308 9.71268 39.1471 10.4801L39.3707 10.5919C39.771 9.79132 39.9719 8.96026 39.9719 8.1H39.7219ZM39.1473 10.4796C38.7644 11.2363 38.2318 11.8552 37.5487 12.3379L37.693 12.5421C38.4099 12.0355 38.9693 11.3851 39.3704 10.5924L39.1473 10.4796ZM37.5496 12.3373C36.8697 12.8087 36.1338 13.043 35.3389 13.043V13.293C36.1866 13.293 36.972 13.042 37.6921 12.5427L37.5496 12.3373ZM35.3389 13.043C34.544 13.043 33.808 12.8087 33.1281 12.3373L32.9856 12.5427C33.7057 13.042 34.4911 13.293 35.3389 13.293V13.043ZM33.129 12.3379C32.4459 11.8552 31.9133 11.2363 31.5304 10.4796L31.3073 10.5924C31.7084 11.3851 32.2678 12.0355 32.9847 12.5421L33.129 12.3379ZM31.5307 10.4801C31.147 9.71268 30.9559 8.91974 30.9559 8.1H30.7059C30.7059 8.96026 30.9068 9.79132 31.3071 10.5919L31.5307 10.4801ZM30.9559 8.1C30.9559 7.28028 31.1469 6.49222 31.5304 5.73444L31.3073 5.62156C30.9068 6.41312 30.7059 7.23972 30.7059 8.1H30.9559ZM31.5307 5.7339C31.9136 4.9681 32.4458 4.34975 33.1281 3.87672L32.9856 3.67127C32.2679 4.16892 31.7082 4.8199 31.3071 5.6221L31.5307 5.7339ZM33.4044 10.4003C33.9271 11.1071 34.5731 11.473 35.3389 11.473V11.223C34.6672 11.223 34.0906 10.9076 33.6054 10.2517L33.4044 10.4003ZM35.3389 11.473C36.1048 11.473 36.7464 11.1068 37.26 10.3994L37.0577 10.2526C36.582 10.9078 36.0103 11.223 35.3389 11.223V11.473ZM37.2594 10.4003C37.7783 9.69877 38.0399 8.93098 38.0399 8.1H37.7899C37.7899 8.87435 37.5474 9.59057 37.0584 10.2517L37.2594 10.4003ZM38.0399 8.1C38.0399 7.26902 37.7783 6.50123 37.2594 5.79966L37.0584 5.94834C37.5474 6.60943 37.7899 7.32565 37.7899 8.1H38.0399ZM37.26 5.80056C36.7464 5.09317 36.1048 4.727 35.3389 4.727V4.977C36.0103 4.977 36.582 5.29216 37.0577 5.94744L37.26 5.80056ZM35.3389 4.727C34.5731 4.727 33.9271 5.09294 33.4044 5.79966L33.6054 5.94834C34.0906 5.2924 34.6672 4.977 35.3389 4.977V4.727ZM33.4037 5.80056C32.8943 6.50213 32.6379 7.26961 32.6379 8.1H32.8879C32.8879 7.32506 33.126 6.60854 33.606 5.94744L33.4037 5.80056ZM32.6379 8.1C32.6379 8.93039 32.8943 9.69787 33.4037 10.3994L33.606 10.2526C33.126 9.59146 32.8879 8.87494 32.8879 8.1H32.6379ZM46.9748 13V13.125H47.0572L47.0897 13.0493L46.9748 13ZM45.6028 13L45.488 13.0493L45.5204 13.125H45.6028V13ZM43.7408 8.66L43.8557 8.61072L43.6158 8.66H43.7408ZM43.7408 13V13.125H43.8658V13H43.7408ZM41.8088 13H41.6838V13.125H41.8088V13ZM41.8088 3.2V3.075H41.6838V3.2H41.8088ZM43.4608 3.2L43.5757 3.15073L43.5432 3.075H43.4608V3.2ZM46.2888 9.794L46.1739 9.84327L46.2888 10.1111L46.4037 9.84327L46.2888 9.794ZM49.1168 3.2V3.075H49.0344L49.0019 3.15073L49.1168 3.2ZM50.7688 3.2H50.8938V3.075H50.7688V3.2ZM50.7688 13V13.125H50.8938V13H50.7688ZM48.8368 13H48.7118V13.125H48.8368V13ZM48.8368 8.66H48.9618L48.722 8.61072L48.8368 8.66ZM46.9748 12.875H45.6028V13.125H46.9748V12.875ZM45.7177 12.9507L43.8557 8.61072L43.626 8.70928L45.488 13.0493L45.7177 12.9507ZM43.6158 8.66V13H43.8658V8.66H43.6158ZM43.7408 12.875H41.8088V13.125H43.7408V12.875ZM41.9338 13V3.2H41.6838V13H41.9338ZM41.8088 3.325H43.4608V3.075H41.8088V3.325ZM43.3459 3.24927L46.1739 9.84327L46.4037 9.74473L43.5757 3.15073L43.3459 3.24927ZM46.4037 9.84327L49.2317 3.24927L49.0019 3.15073L46.1739 9.74473L46.4037 9.84327ZM49.1168 3.325H50.7688V3.075H49.1168V3.325ZM50.6438 3.2V13H50.8938V3.2H50.6438ZM50.7688 12.875H48.8368V13.125H50.7688V12.875ZM48.9618 13V8.66H48.7118V13H48.9618ZM48.722 8.61072L46.86 12.9507L47.0897 13.0493L48.9517 8.70928L48.722 8.61072Z" fill="white"/>
<defs>
<clipPath id="clip0_39_1472">
<rect width="17" height="17" fill="white"/>
</clipPath>
</defs>
</svg>
